<?xml version="1.0" standalone="no"?>
<!DOCTYPE svg PUBLIC "-//W3C//DTD SVG 20010904//EN"
 "http://www.w3.org/TR/2001/REC-SVG-20010904/DTD/svg10.dtd">
<svg version="1.0" xmlns="http://www.w3.org/2000/svg"
 width="1080.000000pt" height="1080.000000pt" viewBox="0 0 1080.000000 1080.000000"
 preserveAspectRatio="xMidYMid meet">
<metadata>
Created by potrace 1.11, written by Peter Selinger 2001-2013
</metadata>
<g transform="translate(0.000000,1080.000000) scale(0.100000,-0.100000)"
fill="#000000" stroke="none">
<path d="M5370 8403 c0 -21 -18 -82 -85 -293 -19 -58 -31 -108 -27 -112 9 -9
236 -13 250 -4 10 6 -102 378 -124 411 -14 19 -14 19 -14 -2z"/>
<path d="M5478 7963 c7 -3 16 -2 19 1 4 3 -2 6 -13 5 -11 0 -14 -3 -6 -6z"/>
<path d="M5300 7541 l0 -401 85 0 85 0 2 360 c1 198 2 375 2 393 l1 32 -73 -4
c-47 -2 -78 1 -87 9 -13 11 -15 -36 -15 -389z"/>
<path d="M4688 7798 c-21 -10 -38 -24 -38 -31 0 -9 2 -9 8 0 8 13 20 -14 89
-212 19 -55 41 -114 48 -130 16 -35 64 -172 103 -292 24 -75 51 -111 60 -84 2
6 12 11 21 11 10 0 20 2 23 5 5 5 -14 63 -40 128 -7 16 -12 34 -12 41 0 6 -4
16 -8 22 -5 5 -20 41 -34 79 -67 183 -138 384 -149 423 -16 56 -27 62 -71 40z"/>
<path d="M5992 7795 c-7 -8 -11 -15 -9 -15 5 0 -37 -122 -62 -185 -7 -16 -26
-70 -43 -120 -17 -49 -38 -108 -48 -130 -10 -22 -24 -59 -30 -82 -7 -24 -17
-40 -23 -36 -6 4 -7 1 -3 -6 8 -12 0 -39 -30 -108 -8 -17 -14 -33 -14 -36 0
-11 64 -37 71 -30 7 8 32 74 71 190 12 34 24 60 27 58 3 -1 6 9 7 23 1 15 10
47 21 72 12 25 34 86 49 135 16 50 32 92 35 95 3 3 14 29 24 59 9 29 24 65 31
80 13 25 12 27 -14 38 -35 16 -44 15 -60 -2z"/>
<path d="M3900 7715 c-10 -12 -10 -15 1 -15 8 0 25 -23 39 -51 13 -27 31 -58
40 -67 9 -9 26 -34 39 -54 12 -21 26 -38 29 -38 4 0 20 12 35 26 l28 26 -43
36 c-82 70 -110 101 -102 113 4 8 3 9 -5 5 -7 -5 -20 1 -30 13 -16 19 -20 19
-31 6z"/>
<path d="M6766 7669 c-15 -18 -31 -27 -37 -23 -7 4 -9 3 -6 -3 4 -6 -14 -29
-39 -52 -32 -31 -43 -47 -39 -61 6 -20 -13 -39 -24 -23 -9 14 -55 28 -47 14 7
-11 -8 -42 -39 -76 -11 -12 -42 -48 -70 -80 -96 -112 -107 -123 -120 -119 -7
3 -15 -2 -19 -12 -5 -14 -4 -15 9 -4 27 23 16 -4 -18 -40 -17 -19 -59 -69 -92
-110 -33 -41 -66 -82 -75 -90 -44 -47 -70 -81 -70 -94 0 -15 55 -66 70 -66 12
0 54 46 160 175 23 28 56 68 75 90 18 22 84 101 146 175 62 74 116 137 119
140 31 29 33 41 11 64 -16 17 -19 26 -11 31 7 4 16 2 21 -6 6 -11 12 -10 28 5
12 11 21 25 21 32 0 7 3 14 8 16 10 4 62 85 62 97 0 5 7 11 15 15 19 7 20 36
1 36 -8 0 -26 -14 -40 -31z"/>
<path d="M4093 7492 c-18 -15 -33 -34 -33 -41 0 -8 28 -46 63 -85 35 -39 70
-81 78 -93 9 -12 39 -47 67 -78 29 -31 52 -58 52 -60 0 -3 8 -13 18 -23 18
-20 30 -33 111 -132 29 -36 69 -84 88 -107 19 -24 41 -43 47 -43 7 0 30 15 51
33 38 33 38 33 18 53 -17 16 -159 183 -203 238 -33 42 -114 131 -122 134 -4 2
-8 8 -8 13 0 6 -15 27 -34 47 -19 20 -45 51 -57 67 -13 17 -36 44 -51 60 -15
17 -28 33 -28 38 0 15 -26 6 -57 -21z"/>
<path d="M3654 6964 c-10 -20 -13 -39 -8 -43 8 -8 38 -24 159 -90 17 -9 32
-19 35 -22 3 -4 30 -19 60 -34 30 -15 62 -33 70 -40 8 -7 40 -26 70 -42 144
-79 209 -120 202 -128 -4 -5 -2 -6 4 -2 5 3 29 -5 53 -19 48 -27 55 -25 76 16
l15 29 -67 35 c-37 20 -71 36 -75 36 -4 0 -8 5 -8 10 0 6 -4 10 -9 10 -4 0
-82 43 -172 96 -90 53 -193 112 -229 132 -36 19 -84 48 -108 63 -24 16 -45 29
-47 29 -2 0 -12 -16 -21 -36z"/>
<path d="M7040 6992 c0 -13 -59 -43 -72 -36 -6 4 -8 3 -4 -4 3 -6 -6 -17 -21
-25 -16 -7 -46 -24 -68 -37 -22 -12 -56 -31 -75 -42 -19 -11 -53 -30 -75 -44
-22 -13 -56 -33 -75 -43 -19 -11 -62 -35 -94 -55 -32 -19 -63 -33 -68 -30 -5
3 -7 1 -6 -4 2 -6 -26 -25 -61 -44 -36 -19 -66 -39 -68 -44 -5 -15 38 -78 45
-67 4 6 23 18 42 28 18 10 41 24 49 32 7 8 22 12 33 10 10 -3 16 -1 13 4 -3 4
14 18 37 30 24 12 50 27 58 34 8 7 40 25 70 41 30 15 57 31 60 34 3 4 37 24
77 46 39 21 113 63 163 93 90 52 92 54 86 84 -6 29 -20 46 -38 47 -5 0 -8 -4
-8 -8z"/>
<path d="M5229 6910 c-150 -26 -351 -110 -449 -187 -67 -55 -166 -153 -196
-195 -15 -21 -31 -35 -37 -31 -5 3 -7 1 -4 -4 4 -6 -9 -37 -28 -69 -19 -32
-35 -64 -35 -71 0 -7 -4 -13 -9 -13 -10 0 -45 -94 -61 -165 -7 -27 -17 -61
-23 -73 -7 -15 -11 -84 -11 -180 0 -161 8 -210 61 -377 19 -61 93 -194 142
-255 51 -64 175 -185 225 -219 94 -65 241 -128 359 -155 95 -22 274 -35 307
-23 8 3 43 8 76 11 34 3 84 12 110 21 27 8 65 20 84 26 54 17 189 88 250 132
69 50 173 155 228 229 23 31 42 59 42 62 0 3 14 29 31 58 37 62 82 195 99 294
9 48 11 123 7 230 -7 200 -34 297 -129 466 -88 155 -239 297 -410 386 -53 27
-95 51 -93 53 2 2 -6 5 -18 5 -12 1 -71 14 -131 28 -87 21 -131 26 -225 25
-64 -1 -137 -5 -162 -9z m60 -142 c-6 -11 -21 -31 -33 -42 -23 -22 -76 -92
-76 -99 0 -3 -12 -31 -27 -63 -16 -33 -28 -76 -29 -97 -1 -33 3 -39 33 -53 18
-9 36 -21 40 -27 7 -12 -23 -37 -93 -77 -46 -27 -52 -35 -62 -81 -16 -68 -15
-109 3 -152 8 -20 15 -52 15 -72 0 -37 15 -71 40 -92 8 -7 11 -13 6 -13 -5 0
-3 -7 4 -15 11 -13 7 -15 -25 -13 -38 3 -39 2 -55 -46 -19 -52 -46 -78 -60
-56 -10 16 -40 6 -40 -13 0 -7 -11 -24 -25 -37 -14 -13 -25 -31 -25 -41 0 -9
-7 -22 -15 -29 -9 -7 -14 -18 -12 -24 3 -6 -12 -45 -33 -86 -21 -41 -45 -102
-55 -135 -9 -33 -18 -66 -21 -72 -2 -7 -8 -13 -13 -13 -10 0 -71 73 -71 85 0
3 -7 13 -16 22 -8 9 -13 22 -10 30 3 8 2 11 -3 8 -11 -6 -79 129 -92 183 -39
156 -47 273 -28 378 19 107 51 229 64 244 7 8 23 35 37 60 36 69 59 100 69 94
5 -3 6 1 3 9 -12 33 196 214 306 264 88 41 142 61 195 72 33 7 65 15 70 16 6
2 18 4 28 4 15 1 16 -2 6 -21z m366 -13 c72 -22 190 -83 258 -133 88 -64 98
-76 91 -98 -4 -14 -3 -16 4 -5 12 17 30 2 87 -74 l37 -50 -58 -12 c-69 -14
-109 -4 -209 51 -56 31 -61 36 -69 80 -13 70 -72 101 -203 109 -66 3 -103 24
-103 59 0 15 8 18 43 18 55 0 71 11 65 44 -6 30 -7 30 57 11z m172 -773 c6 -4
11 -22 11 -40 -1 -26 -4 -31 -19 -27 -21 7 -49 -29 -49 -62 0 -17 7 -23 35
-29 19 -3 35 -7 35 -9 0 -16 -35 -65 -46 -65 -10 0 -14 -8 -12 -24 1 -13 -3
-31 -11 -40 -7 -9 -11 -27 -9 -40 4 -21 -1 -27 -35 -41 -37 -15 -97 -13 -97 3
0 4 -30 6 -67 4 -38 -2 -88 -3 -112 -2 -26 1 -50 -5 -60 -14 -23 -20 -115 -39
-120 -24 -2 6 -12 19 -21 28 -10 10 -16 20 -14 23 2 2 -2 10 -10 16 -12 10
-18 6 -32 -24 -13 -27 -14 -39 -5 -48 17 -17 13 -37 -8 -37 -23 0 -43 23 -45
52 -1 15 -10 25 -26 29 -14 4 -18 7 -10 8 8 1 21 10 28 22 9 14 20 19 33 16
27 -7 46 15 54 62 l6 39 52 -4 c66 -5 99 2 127 28 16 15 24 17 29 9 8 -13 27
4 46 42 10 21 32 28 97 31 14 0 26 5 25 10 -1 4 20 14 46 21 31 8 58 23 75 43
41 46 80 62 109 44z"/>
<path d="M4704 6449 c-3 -6 -2 -15 3 -20 5 -5 9 -1 9 11 0 23 -2 24 -12 9z"/>
<path d="M4541 5954 c0 -11 3 -14 6 -6 3 7 2 16 -1 19 -3 4 -6 -2 -5 -13z"/>
<path d="M4541 5754 c0 -11 3 -14 6 -6 3 7 2 16 -1 19 -3 4 -6 -2 -5 -13z"/>
<path d="M5739 5943 c-13 -16 -12 -17 4 -4 16 13 21 21 13 21 -2 0 -10 -8 -17
-17z"/>
<path d="M5628 5873 c7 -3 16 -2 19 1 4 3 -2 6 -13 5 -11 0 -14 -3 -6 -6z"/>
<path d="M5578 5763 c-2 -4 -4 -24 -4 -43 1 -30 4 -35 26 -35 23 0 25 4 25 40
0 33 -4 41 -22 43 -11 2 -23 0 -25 -5z"/>
<path d="M3496 6372 c-6 -10 -27 -125 -23 -129 2 -1 30 -6 63 -9 32 -4 67 -10
76 -15 9 -5 28 -9 43 -9 14 0 24 -4 21 -8 -3 -5 7 -7 22 -4 16 2 61 -4 102
-13 41 -9 116 -22 165 -30 50 -8 113 -19 140 -25 28 -5 64 -12 82 -15 34 -5
32 -9 49 87 7 41 8 41 -91 53 -27 3 -63 10 -80 15 -16 5 -104 21 -195 35 -249
40 -333 56 -352 66 -9 5 -19 5 -22 1z"/>
<path d="M7229 6375 c-8 -7 -74 -20 -304 -60 -110 -18 -253 -44 -318 -56 -117
-22 -118 -22 -112 -48 3 -14 8 -39 11 -56 5 -31 34 -61 43 -46 6 8 133 32 535
102 93 16 172 32 176 34 8 5 -7 102 -19 123 -4 7 -9 10 -12 7z"/>
<path d="M9701 6244 c0 -11 3 -14 6 -6 3 7 2 16 -1 19 -3 4 -6 -2 -5 -13z"/>
<path d="M1015 6229 c-16 -5 -36 -7 -42 -4 -7 2 -13 1 -13 -4 0 -5 -21 -12
-46 -16 -26 -4 -54 -11 -63 -16 -9 -5 -94 -31 -189 -58 -96 -27 -176 -51 -178
-54 -3 -2 0 -16 6 -31 5 -15 10 -37 10 -50 0 -37 18 -47 59 -31 60 22 167 55
177 55 6 0 20 -17 32 -38 11 -21 30 -46 42 -57 16 -14 18 -21 8 -28 -9 -6 -7
-7 6 -3 12 4 30 -4 52 -24 98 -86 353 -172 606 -205 159 -21 413 -21 609 -1
85 9 178 18 205 21 27 3 76 9 109 14 33 5 87 12 120 15 33 3 121 12 195 20
292 32 446 41 705 41 358 0 468 -20 529 -98 14 -17 32 -39 39 -47 8 -8 21 -34
30 -57 9 -23 25 -61 35 -85 11 -24 34 -79 52 -123 19 -44 37 -82 41 -85 3 -3
18 -28 32 -56 15 -29 32 -58 39 -65 8 -8 29 -36 48 -64 19 -27 46 -59 60 -71
14 -12 43 -38 64 -59 22 -20 64 -55 93 -78 l54 -40 19 21 c11 12 20 24 20 28
0 3 9 18 20 32 l21 26 -24 13 c-99 51 -296 277 -333 382 -7 20 -13 32 -14 26
-1 -16 -59 117 -66 153 -3 17 -10 32 -15 32 -5 0 -9 5 -9 11 0 17 -62 140 -82
164 -9 11 -27 32 -40 47 -31 37 -158 93 -243 108 -88 15 -413 27 -520 19 -79
-6 -377 -28 -465 -35 -25 -1 -83 -8 -130 -14 -112 -14 -510 -60 -569 -65 -25
-2 -98 -9 -161 -16 -239 -24 -586 16 -791 91 -100 37 -105 40 -88 52 9 5 5 6
-13 2 -30 -7 -97 34 -157 95 l-34 35 24 7 c13 4 49 15 79 24 59 19 77 23 99
24 15 1 9 54 -12 102 -11 23 -15 25 -42 18z"/>
<path d="M9719 6213 c-6 -16 -12 -43 -13 -61 -1 -32 2 -34 54 -51 30 -10 74
-23 98 -30 23 -6 42 -16 42 -22 0 -26 -116 -117 -170 -134 -14 -4 -29 -11 -35
-15 -22 -16 -195 -69 -275 -84 -198 -37 -411 -51 -556 -38 -65 6 -144 13 -174
16 -30 2 -98 9 -150 15 -52 6 -142 16 -199 21 -57 6 -107 13 -111 15 -4 2 -49
7 -101 11 -52 3 -98 9 -104 12 -5 4 -32 7 -60 8 -27 1 -142 9 -255 19 -228 19
-619 17 -725 -4 -122 -25 -198 -61 -263 -129 -29 -31 -118 -199 -137 -261 -11
-34 -85 -195 -93 -201 -4 -3 -16 -21 -27 -42 -11 -20 -34 -51 -50 -70 -17 -18
-43 -50 -59 -70 -16 -21 -31 -38 -35 -38 -4 0 -33 -25 -66 -55 -32 -31 -65
-53 -72 -51 -21 9 -15 -31 12 -73 13 -22 28 -42 34 -45 10 -6 109 64 153 108
16 17 32 25 39 20 8 -4 9 -3 5 4 -4 7 14 34 44 64 27 29 53 61 56 71 3 10 12
16 20 13 7 -3 16 0 20 6 4 7 3 8 -4 4 -17 -10 -15 10 3 27 8 9 41 70 74 136
33 66 62 115 65 108 3 -6 3 -2 0 11 -3 14 3 36 15 58 12 19 21 39 21 44 0 5
11 33 25 63 30 62 92 130 112 123 8 -3 12 -2 9 2 -7 11 77 40 144 49 94 13
624 9 770 -6 177 -18 637 -69 675 -75 252 -40 598 -49 810 -20 72 9 139 18
150 19 11 1 27 4 35 8 8 3 51 15 94 27 106 27 138 38 222 80 102 51 187 118
220 172 17 27 36 48 47 48 9 0 17 -4 17 -8 0 -5 6 -9 13 -9 6 0 50 -10 97 -22
56 -15 86 -19 88 -12 2 6 8 8 13 5 6 -3 7 4 4 18 -3 13 -1 37 5 52 6 16 9 31
6 33 -2 2 -26 10 -52 18 -120 34 -278 79 -386 111 -64 19 -119 34 -123 34 -3
0 -10 -12 -16 -27z"/>
<path d="M555 5950 c-3 -6 1 -7 9 -4 18 7 21 14 7 14 -6 0 -13 -4 -16 -10z"/>
<path d="M807 5869 c7 -7 15 -10 18 -7 3 3 -2 9 -12 12 -14 6 -15 5 -6 -5z"/>
<path d="M2698 5713 c7 -3 16 -2 19 1 4 3 -2 6 -13 5 -11 0 -14 -3 -6 -6z"/>
<path d="M2428 5412 l-1418 -2 0 -28 c0 -15 4 -31 8 -37 4 -7 490 -10 1420
-10 l1413 0 6 23 c3 13 2 31 -3 40 -8 16 -105 17 -1426 14z"/>
<path d="M8363 5412 l-1403 -2 0 -35 0 -35 1406 -2 c877 -2 1409 1 1415 7 13
13 11 62 -3 66 -7 2 -644 3 -1415 1z"/>
<path d="M4570 5263 c0 -6 6 -14 13 -16 9 -4 8 -8 -3 -16 -9 -7 -10 -11 -3
-11 21 0 26 21 9 38 -9 9 -16 11 -16 5z"/>
<path d="M9335 5130 c-4 -7 -406 -10 -1203 -10 l-1197 0 0 -35 0 -35 1200 0
c660 0 1205 0 1210 0 6 0 10 16 11 35 0 19 -3 35 -8 35 -5 0 -6 5 -3 10 3 6 4
10 1 10 -3 0 -8 -5 -11 -10z"/>
<path d="M1452 5120 c-4 -3 -7 -20 -7 -37 l0 -33 1197 -1 c659 -1 1204 -2
1210 -3 15 -1 22 27 14 57 l-5 22 -1202 0 c-660 0 -1204 -2 -1207 -5z"/>
<path d="M1709 4125 c-1 -206 -2 -381 -3 -387 -1 -10 63 -14 283 -16 157 -1
287 1 291 5 3 5 4 36 2 71 l-4 62 -209 0 -210 0 3 82 3 83 30 6 c17 4 83 7
148 8 87 1 117 -2 117 -11 0 -10 2 -10 8 -1 8 13 29 13 50 0 6 -5 12 -5 13 0
0 4 1 39 2 76 l1 68 -184 2 -185 2 -3 70 c-5 125 -24 115 213 115 112 0 205 3
207 8 2 4 2 35 0 70 l-4 62 -284 0 -284 0 -1 -375z"/>
<path d="M2888 4116 c-2 -216 1 -387 6 -392 5 -5 41 -7 80 -4 l71 5 0 123 0
122 64 0 c62 0 66 -2 98 -37 18 -21 39 -50 46 -65 6 -16 15 -28 18 -28 4 0 19
-20 33 -44 44 -74 47 -76 152 -76 52 0 94 3 94 8 0 4 -9 15 -20 25 -11 9 -20
22 -20 29 0 7 -16 30 -35 51 -19 20 -49 59 -66 85 -18 26 -37 51 -43 55 -8 6
-7 10 3 14 28 11 93 78 112 115 50 97 31 244 -42 323 -62 68 -96 75 -341 75
l-208 0 -2 -384z m406 233 c24 -11 66 -83 66 -112 0 -7 -9 -32 -21 -56 -28
-58 -62 -71 -189 -71 l-100 0 0 125 0 125 110 0 c60 0 120 -5 134 -11z"/>
<path d="M4112 4213 l3 -288 29 -50 c67 -117 135 -157 276 -163 136 -6 216 22
280 99 67 79 69 92 69 407 l1 282 -75 0 -75 0 -1 -252 c-1 -252 -6 -305 -27
-301 -6 2 -9 -3 -7 -10 7 -16 -40 -65 -72 -78 -39 -15 -119 -10 -156 9 -40 20
-71 62 -86 118 -6 23 -11 137 -11 277 l0 237 -76 0 -75 0 3 -287z"/>
<path d="M5400 4109 l0 -391 203 4 c146 4 215 9 250 21 68 22 151 90 186 151
89 159 63 396 -56 507 -94 87 -139 99 -385 99 l-198 0 0 -391z m400 239 c19
-6 42 -18 53 -27 104 -86 111 -316 12 -404 -32 -28 -76 -49 -91 -43 -9 3 -12
1 -9 -4 4 -6 -32 -10 -99 -10 l-106 0 0 250 0 250 104 0 c56 0 118 -5 136 -12z"/>
<path d="M6702 4109 l3 -391 73 -1 c39 -1 72 1 72 6 0 4 8 7 18 8 10 0 12 3 5
6 -10 4 -13 90 -13 384 l0 379 -80 0 -80 0 2 -391z"/>
<path d="M7420 4441 c0 -90 -4 -86 115 -83 l105 3 1 -313 c0 -172 4 -322 9
-333 5 -11 9 -15 9 -8 1 8 25 13 72 15 l70 3 -1 318 -1 317 110 0 c60 0 111 3
113 8 2 4 2 35 0 70 l-4 62 -299 0 -299 0 0 -59z"/>
<path d="M8580 4493 c-1 -5 0 -163 0 -353 0 -190 -4 -358 -8 -375 -6 -19 -5
-34 1 -40 16 -16 582 -4 581 13 -1 6 -2 37 -2 67 l-2 55 -210 0 -210 0 0 74
c0 41 3 81 6 89 4 12 32 15 147 16 78 1 156 -3 173 -8 22 -6 35 -5 49 5 10 8
14 14 7 14 -7 0 -12 24 -14 61 l-3 60 -180 2 -180 2 -3 70 c-5 123 -23 113
210 115 112 0 205 4 208 8 3 4 4 35 2 70 l-4 62 -284 0 c-156 0 -284 -3 -284
-7z"/>
<path d="M4085 3591 c-3 -6 -18 -11 -33 -11 -15 0 -33 -4 -41 -9 -16 -10 -6
-31 15 -31 11 0 14 -23 15 -122 2 -165 1 -170 -23 -191 -11 -10 -19 -19 -17
-21 2 -2 35 -5 73 -7 71 -4 95 8 54 26 -23 10 -23 13 -23 187 -1 168 -4 203
-20 179z"/>
<path d="M4810 3580 c-8 -5 -25 -10 -38 -10 -30 0 -24 -24 6 -28 21 -3 22 -7
22 -148 0 -147 -6 -174 -40 -174 -6 0 -10 -5 -8 -12 3 -8 28 -11 71 -11 73 1
108 13 67 23 l-25 6 -3 154 c-1 85 2 167 7 182 9 26 8 28 -17 28 -15 0 -34 -5
-42 -10z"/>
<path d="M1718 3528 c-28 -10 -33 -23 -29 -74 2 -14 -5 -23 -18 -27 -12 -3
-21 -13 -21 -22 0 -12 6 -16 20 -12 19 5 20 0 20 -87 0 -90 1 -93 25 -104 36
-17 66 -14 94 7 31 24 20 42 -21 34 -27 -5 -30 -4 -25 11 4 10 3 15 -3 11 -6
-4 -10 20 -10 64 l0 71 39 0 c25 0 41 5 45 15 3 8 0 16 -7 16 -7 1 -19 3 -27
4 -8 1 -23 3 -34 4 -16 1 -17 7 -12 45 8 50 2 57 -36 44z"/>
<path d="M4366 3458 c-23 -21 -30 -48 -27 -100 4 -60 111 -81 156 -32 77 83
-45 207 -129 132z"/>
<path d="M2110 3450 c-8 -5 -27 -11 -42 -15 -34 -7 -37 -25 -4 -25 26 0 36
-21 36 -80 0 -61 -18 -110 -42 -110 -15 0 -18 -3 -10 -12 13 -17 144 -16 150
0 2 7 -5 12 -16 12 -24 0 -32 18 -32 74 0 60 18 106 40 106 11 0 22 -4 25 -10
3 -5 13 -10 21 -10 8 0 12 5 9 10 -4 6 -2 17 4 24 17 20 2 46 -26 46 -13 0
-35 -12 -50 -27 -24 -26 -26 -26 -21 -6 4 14 0 24 -9 27 -8 3 -15 6 -16 5 -1
0 -9 -4 -17 -9z"/>
<path d="M2563 3445 c-35 -15 -60 -50 -43 -60 6 -4 8 -11 5 -16 -4 -5 -1 -9 4
-9 6 0 11 5 11 10 0 15 38 50 55 50 19 0 57 -38 50 -50 -3 -5 -26 -12 -52 -16
-62 -9 -93 -40 -93 -93 0 -70 69 -95 123 -43 18 17 28 22 27 12 -5 -34 1 -38
47 -36 49 2 69 20 33 29 -20 5 -21 11 -18 90 2 47 0 83 -4 80 -5 -2 -8 3 -8
11 0 22 -49 56 -79 56 -14 -1 -40 -7 -58 -15z m87 -144 c0 -21 -8 -36 -29 -50
-37 -27 -57 -19 -59 23 -1 27 4 34 26 43 49 19 62 16 62 -16z"/>
<path d="M3008 3452 c-29 -3 -40 -32 -13 -32 9 0 19 -8 22 -17 4 -10 9 -20 13
-23 4 -3 19 -42 35 -88 16 -45 34 -87 41 -93 16 -13 46 2 50 24 1 8 16 44 33
80 17 36 31 69 31 75 0 6 13 21 29 35 17 14 27 28 24 31 -4 3 -30 6 -60 6 -40
0 -53 -4 -53 -15 0 -8 9 -15 20 -15 11 0 20 -4 20 -10 0 -5 -5 -10 -11 -10 -5
0 -7 -4 -4 -10 3 -5 -1 -24 -9 -42 -8 -18 -17 -44 -21 -57 -9 -30 -18 -20 -49
58 -30 76 -30 75 -11 67 14 -5 17 -2 19 25 1 11 -55 17 -106 11z"/>
<path d="M3586 3448 c3 -4 -5 -12 -17 -18 -30 -17 -50 -73 -47 -135 2 -29 5
-51 7 -49 2 2 15 -9 29 -24 23 -24 33 -27 89 -27 52 0 66 4 85 23 19 19 21 24
8 32 -8 5 -17 5 -20 1 -10 -16 -63 -22 -91 -11 -22 10 -49 51 -49 76 0 2 35 4
78 4 97 0 103 4 92 54 -14 61 -40 80 -109 81 -33 0 -57 -3 -55 -7z m78 -24 c9
-3 13 -10 10 -15 -3 -5 0 -9 5 -9 6 0 11 -11 11 -25 0 -24 -3 -25 -55 -25 -30
0 -55 5 -55 10 0 6 4 10 10 10 5 0 7 6 4 14 -6 15 21 46 41 46 7 0 20 -3 29
-6z"/>
<path d="M5205 3450 c2 -4 -9 -16 -25 -28 -23 -17 -30 -32 -35 -76 -8 -61 2
-87 47 -128 23 -21 41 -28 72 -28 50 0 90 19 94 44 3 16 0 18 -19 12 -55 -16
-83 -13 -108 13 -15 14 -27 34 -29 44 -3 15 7 17 82 17 77 0 85 2 91 21 4 12
2 26 -4 32 -6 6 -11 19 -11 29 0 28 -48 52 -106 53 -29 1 -51 -2 -49 -5z m89
-36 c9 -8 16 -26 16 -40 0 -22 -3 -24 -55 -24 -46 0 -55 3 -55 18 0 24 36 62
60 62 10 0 26 -7 34 -16z"/>
<path d="M5688 3443 c-33 -13 -38 -19 -38 -49 0 -37 15 -46 25 -14 14 43 74
49 95 10 9 -17 4 -21 -47 -36 -75 -21 -98 -43 -98 -95 0 -66 63 -92 118 -49
31 24 35 25 33 3 -1 -15 7 -18 48 -18 30 1 51 6 54 13 2 7 -5 12 -16 12 -27 0
-33 21 -31 112 1 60 -2 83 -15 97 -9 9 -14 20 -12 22 12 12 -84 6 -116 -8z
m88 -144 c-1 -19 -11 -38 -27 -50 -30 -23 -34 -23 -53 -3 -26 26 -19 53 17 69
52 23 65 20 63 -16z"/>
<path d="M6198 3454 c-3 -3 -18 -7 -34 -10 -60 -10 -70 -22 -31 -39 19 -9 22
-18 25 -83 3 -73 -8 -102 -38 -102 -6 0 -10 -5 -8 -12 5 -15 141 -14 146 1 2
6 -6 11 -17 11 -19 0 -21 6 -21 73 0 92 15 118 54 98 31 -17 33 -16 38 29 3
32 1 35 -25 37 -17 1 -36 -6 -48 -18 -14 -14 -19 -15 -19 -5 0 16 -14 29 -22
20z"/>
<path d="M6593 3442 c-56 -16 -68 -29 -30 -34 21 -3 22 -7 22 -93 0 -87 -1
-89 -25 -95 -38 -9 -12 -18 64 -21 71 -4 95 8 54 26 -20 9 -23 18 -26 79 -3
78 12 106 59 106 41 0 52 -28 47 -128 l-3 -86 49 0 c50 0 74 17 36 27 -18 5
-20 13 -20 95 0 98 -12 125 -63 137 -28 7 -87 -11 -87 -26 0 -5 -4 -9 -10 -9
-5 0 -7 6 -4 14 8 22 -7 24 -63 8z"/>
<path d="M7547 3445 c-44 -15 -62 -36 -76 -83 -18 -61 4 -121 54 -152 29 -18
45 -21 81 -16 48 6 81 23 89 45 4 11 -1 12 -27 6 -78 -17 -128 -3 -128 36 0
11 -4 19 -10 19 -5 0 -10 4 -10 10 0 5 39 11 88 12 l87 3 3 29 c5 38 -15 74
-50 92 -33 17 -52 17 -101 -1z m77 -37 c32 -45 22 -58 -44 -58 -66 0 -71 6
-39 51 25 35 61 38 83 7z"/>
<path d="M8033 3453 c-13 -3 -23 -9 -23 -14 0 -5 -5 -8 -11 -6 -16 3 -33 -28
-26 -47 4 -9 14 -16 22 -16 9 0 13 5 10 10 -9 15 20 40 47 40 34 0 62 -52 30
-56 -4 0 -14 -3 -22 -7 -8 -3 -27 -8 -43 -11 -91 -20 -89 -156 3 -156 18 0 37
8 47 20 17 20 39 28 28 11 -15 -25 86 -39 106 -15 9 11 6 14 -15 14 l-26 0 0
93 c0 70 -4 98 -17 117 -16 22 -16 23 2 16 11 -4 16 -4 12 0 -9 9 -91 13 -124
7z m47 -195 c-29 -24 -57 -23 -65 2 -8 25 10 49 50 66 29 12 30 12 33 -19 3
-23 -2 -36 -18 -49z"/>
<path d="M8051 3294 c0 -11 3 -14 6 -6 3 7 2 16 -1 19 -3 4 -6 -2 -5 -13z"/>
<path d="M8030 3260 c0 -5 5 -10 11 -10 5 0 7 5 4 10 -3 6 -8 10 -11 10 -2 0
-4 -4 -4 -10z"/>
<path d="M8525 3454 c-5 -2 -29 -8 -52 -14 -47 -12 -58 -30 -17 -30 14 0 23
-4 19 -10 -3 -5 -2 -10 4 -10 8 0 9 -74 2 -157 -1 -7 -13 -13 -27 -13 -20 0
-24 -3 -16 -12 13 -17 144 -16 150 0 2 7 -5 12 -16 12 -24 0 -32 18 -32 70 0
63 11 99 32 106 12 3 24 1 28 -6 15 -25 41 -2 38 32 -3 31 -5 33 -46 34 -24 0
-38 -2 -33 -6 7 -4 6 -13 -5 -26 -11 -14 -14 -15 -11 -3 6 19 -4 37 -18 33z"/>
<path d="M8939 3449 c-8 -5 -24 -9 -36 -9 -28 0 -30 -26 -3 -33 18 -5 20 -14
20 -80 0 -84 -6 -107 -26 -107 -8 0 -14 -4 -14 -10 0 -5 25 -11 55 -12 30 -1
63 -2 72 -2 9 -1 18 5 21 12 2 7 -6 12 -22 12 -26 0 -26 0 -26 85 0 73 3 86
19 95 30 15 56 12 75 -9 15 -16 17 -32 12 -90 -3 -39 -7 -75 -10 -80 -10 -15
18 -27 63 -26 26 0 46 5 48 13 3 7 -4 12 -16 12 -17 0 -21 7 -23 33 0 17 -2
61 -4 95 -3 74 -19 98 -71 108 -27 5 -41 2 -64 -15 -22 -16 -29 -18 -29 -7 0
18 -23 27 -41 15z"/>
<path d="M7100 3433 c-29 -11 -50 -48 -50 -91 0 -116 157 -124 184 -9 16 68
-61 126 -134 100z"/>
<path d="M2990 3400 c0 -5 5 -10 11 -10 5 0 7 5 4 10 -3 6 -8 10 -11 10 -2 0
-4 -4 -4 -10z"/>
<path d="M3245 3390 c-3 -6 1 -7 9 -4 18 7 21 14 7 14 -6 0 -13 -4 -16 -10z"/>
<path d="M6680 3390 c-9 -6 -10 -10 -3 -10 6 0 15 5 18 10 8 12 4 12 -15 0z"/>
<path d="M7578 3173 c6 -2 18 -2 25 0 6 3 1 5 -13 5 -14 0 -19 -2 -12 -5z"/>
<path d="M5688 3153 c7 -3 16 -2 19 1 4 3 -2 6 -13 5 -11 0 -14 -3 -6 -6z"/>
</g>
</svg>
